<svg height="512" viewBox="0 0 512 512" width="512" xmlns="http://www.w3.org/2000/svg"><g id="Flat"><path d="m392 216-40 112-24 56h-144l-24-56-40-112v-48h272z" fill="#253555"/><path d="m448 401.97v94.03h-384v-94.03a64 64 0 0 1 48.48-62.09l79.52-19.88a28.939 28.939 0 0 0 16-25.89v-54.11h96v54.11a28.939 28.939 0 0 0 16 25.89l79.52 19.88a64 64 0 0 1 48.48 62.09z" fill="#fdc8a2"/><path d="m304 240v50.67l-6.4 8.53a31.992 31.992 0 0 1 -25.6 12.8h-32a31.992 31.992 0 0 1 -25.6-12.8l-6.4-8.53v-50.67z" fill="#fdbf92"/><path d="m399.522 339.88-79.522-19.88-9.955 26.547a57.721 57.721 0 0 1 -54.045 37.453 57.721 57.721 0 0 1 -54.045-37.453l-9.955-26.547-79.522 19.88a64 64 0 0 0 -48.478 62.09v94.03h384v-94.03a64 64 0 0 0 -48.478-62.09z" fill="#283f61"/><path d="m272 288h-32a32 32 0 0 1 -25.6-12.8l-32-42.667a32 32 0 0 1 -6.4-19.2v-93.333c0-44.183 35.817-72 80-72 44.183 0 80 27.817 80 72v93.333a32 32 0 0 1 -6.4 19.2l-32 42.667a32 32 0 0 1 -25.6 12.8z" fill="#fdc8a2"/><path d="m172 184h4v-56h-4a28 28 0 0 0 -28 28 28 28 0 0 0 28 28z" fill="#fdbf92"/><path d="m340 128h-4v56h4a28 28 0 0 0 28-28 28 28 0 0 0 -28-28z" fill="#fdbf92"/><path d="m248.732 224c-3.118 0-6.288-.129-9.467-.423l1.47-15.932c21.961 2.028 44.517-5.335 44.743-5.41l5.052 15.182a146.9 146.9 0 0 1 -41.798 6.583z" fill="#fcb079"/><path d="m248 160h16v32h-16z" fill="#fcb079"/><path d="m120 208v-2a38 38 0 0 1 38-38h196a38 38 0 0 1 38 38v-47.865a64 64 0 0 0 -13.676-39.54l-59.91-76.25a48 48 0 0 0 -37.744-18.345h-49.34a48 48 0 0 0 -37.744 18.345l-59.91 76.25a64 64 0 0 0 -13.676 39.54z" fill="#34507b"/><path d="m248 24h16v112h-16z" fill="#2b4266"/><path d="m184 128h176v16h-176z" fill="#2b4266"/><path d="m152 128h16v16h-16z" fill="#2b4266"/><path d="m448 401.97v94.03h-384v-94.03a64 64 0 0 1 48.48-62.09l2.66-.66.76-.19 14.84-3.71.59-.15-7.48-20.57q-1.02-2.805-1.77-5.69a64.02 64.02 0 0 1 -2.08-16.19v-76.72l40 112 24 56 72 72 72-72 24-56 40-112v76.72a63.8 63.8 0 0 1 -2.8 18.72c-.32 1.06-.67 2.12-1.05 3.16l-7.48 20.57.2.05 15.31 3.83.3.07 3.04.76a64.008 64.008 0 0 1 48.48 62.09z" fill="#34507b"/><g fill="#26395a"><path d="m120 416h16v80h-16z"/><path d="m376 416h16v80h-16z"/><path d="m123.562 480c-26.453-17.635-35.053-59.321-35.407-61.087l15.688-3.146c.074.368 7.686 36.981 28.595 50.921z"/><path d="m388.438 480-8.876-13.312c10.732-7.155 17.917-20.493 22.053-30.421a122.166 122.166 0 0 0 6.54-20.493l15.69 3.139c-.354 1.766-8.954 43.452-35.407 61.087z"/><path d="m126.14 394.87-12.28 10.26-35.94-43a63.811 63.811 0 0 1 11.48-11.21z"/><path d="m439.76 370.56-42.64 35.58-10.24-12.28 43.34-36.16a63.84 63.84 0 0 1 9.54 12.86z"/><path d="m192 456h16v40h-16z"/><path d="m200 472a16 16 0 1 1 16-16 16.019 16.019 0 0 1 -16 16z"/><path d="m304 456h16v40h-16z"/><path d="m312 472a16 16 0 1 1 16-16 16.019 16.019 0 0 1 -16 16z"/><path d="m152 394.5-15.06 5.41-21.8-60.69.76-.19 14.84-3.71z"/><path d="m396.48 339.12-21.45 58.86-15.03-5.48 20.87-57.28 15.31 3.83z"/><path d="m248 456h16v40h-16z"/></g></g></svg>