<svg id="Layer_1" enable-background="new 0 0 496 496" height="512" viewBox="0 0 496 496" width="512" xmlns="http://www.w3.org/2000/svg"><g fill="#d1e7ff"><ellipse cx="401.783" cy="225.25" rx="45.535" ry="45.54"/><circle cx="248.39" cy="156.91" r="81.73"/><ellipse cx="94.217" cy="225.25" rx="45.535" ry="45.54"/><path d="m466.38 324.9-26.328-11.754c-5.484-2.448-3.042-1.876-67.298-1.876-5.973 0-6.788.976-34.334 13.28-27.477-12.266-28.303-13.24-34.261-13.24-7.744 0-14.916 4.136-18.736 10.872-16.498 29.093-58.379 29.037-74.846 0-3.82-6.736-10.992-10.872-18.736-10.872-5.973 0-6.804.983-34.261 13.24-27.581-12.32-28.374-13.28-34.334-13.28-64.045 0-61.762-.596-67.298 1.876l-26.328 11.754c-8.29 3.7-13.62 11.92-13.62 21v4.797c0 11.926 9.668 21.593 21.593 21.593h70.427c-.029 1.082-.02-1.591-.02 26.937 0 11.926 9.668 21.593 21.593 21.593h236.813c11.926 0 21.593-9.668 21.593-21.593 0-28.459.009-25.852-.02-26.937h70.427c11.926 0 21.593-9.668 21.593-21.593v-4.797c.001-9.08-5.329-17.3-13.619-21z"/></g><path d="m157.58 324.55-25.14 11.22c-14.52 6.48-23.98 20.7-24.42 36.52-.887 0-71.313 0-70.427 0-11.925 0-21.593-9.668-21.593-21.593v-4.797c0-9.08 5.33-17.3 13.62-21 28.493-12.72 29.17-13.63 35.131-13.63 64.055 0 61.767-.595 67.302 1.878z" fill="#b9dcff"/><path d="m480 345.9v4.797c0 11.926-9.668 21.593-21.593 21.593-6.552 0-63.854 0-70.427 0-.44-15.82-9.9-30.04-24.42-36.52l-25.14-11.22c27.581-12.32 28.374-13.28 34.334-13.28h52.506c13.318 0 7.964-1.172 41.12 13.63 8.29 3.7 13.62 11.92 13.62 21z" fill="#b9dcff"/><path d="m124.937 311.324c5.058.346 4.727 7.933-.342 7.935-43.852.018-43.201-.545-48.644 1.891l-26.331 11.75c-8.29 3.7-13.62 11.92-13.62 21 0 11.533-16.14 13.673-19.175 2.884-.996-3.54-.825-5.882-.825-10.884 0-9.08 5.33-17.3 13.62-21l26.33-11.75c5.686-2.545 3.839-1.88 67.3-1.88.592 0 1.149.017 1.687.054z" fill="#d1e7ff"/><path d="m371.063 311.324c-5.058.346-4.727 7.933.342 7.935 43.852.018 43.201-.545 48.644 1.891l26.33 11.75c8.004 3.572 13.598 11.524 13.62 21.158.027 11.976 20 15.307 20-3.358v-4.8c0-9.08-5.33-17.3-13.62-21l-26.33-11.75c-5.686-2.545-3.839-1.88-67.3-1.88-.591 0-1.148.017-1.686.054z" fill="#a2d0ff"/><path d="m192.182 332.496c-7.831 3.495-9.709 4.333-29.742 13.274-14.52 6.48-23.98 20.7-24.42 36.52-.346 13.147-.41 21.16-.051 26.501.47 7.003-5.786 12.697-12.655 11.257-8.621-1.807-17.314-6.927-17.314-20.818v-25.78c0-16.268 9.557-31.038 24.44-37.68 30.781-13.737 20.032-8.941 50.6-22.58 14.098-6.311 21.698 13.703 9.142 19.306z" fill="#e8f3ff"/><path d="m388 399.23c0 18.419-16.09 15.07-15.92 5.759.093-5.115-.08-12.132-.08-22.539 0-16.268-9.557-31.038-24.44-37.68-20.258-9.041-32.891-14.808-41.139-18.458-8.522-3.771-3.649-17.682 6.539-13.122 30.567 13.639 19.821 8.843 50.6 22.58 14.52 6.48 23.98 20.7 24.42 36.52.029 1.085.02-1.565.02 26.94z" fill="#b9dcff"/><path d="m57.141 251.691c-21.167-29.623-.404-70.787 35.558-71.956 7.724-.251 10.198 10.391 3.135 13.527-19.747 8.766-30.971 31.724-26.029 52.756 1.762 7.496-8.186 11.939-12.664 5.673z" fill="#e8f3ff"/><path d="m364.711 251.691c-21.167-29.623-.404-70.787 35.558-71.956 7.724-.251 10.198 10.391 3.135 13.527-19.747 8.766-30.971 31.724-26.029 52.756 1.762 7.496-8.186 11.939-12.664 5.673z" fill="#e8f3ff"/><path d="m281.663 82.06c6.777 3.037 4.462 13.148-2.965 13.12-61.418-.227-96.967 62.384-75.994 112.935 2.838 6.84-5.86 12.649-11.179 7.496-15.334-14.856-24.866-35.667-24.866-58.701.001-62.329 64.484-97.487 115.004-74.85z" fill="#e8f3ff"/><path d="m248.391 254.64c53.89 0 97.732-43.842 97.732-97.732s-43.842-97.732-97.732-97.732-97.732 43.842-97.732 97.732 43.842 97.732 97.732 97.732zm0-163.464c36.245 0 65.732 29.487 65.732 65.732s-29.487 65.732-65.732 65.732-65.732-29.487-65.732-65.732 29.487-65.732 65.732-65.732zm-154.173 195.609c33.932 0 61.537-27.605 61.537-61.536 0-33.932-27.605-61.537-61.537-61.537-33.931 0-61.536 27.605-61.536 61.537 0 33.931 27.605 61.536 61.536 61.536zm0-91.073c16.287 0 29.537 13.25 29.537 29.537 0 16.286-13.25 29.536-29.537 29.536-16.286 0-29.536-13.25-29.536-29.536 0-16.287 13.25-29.537 29.536-29.537zm307.564 91.073c33.931 0 61.536-27.605 61.536-61.536 0-33.932-27.605-61.537-61.536-61.537-33.932 0-61.537 27.605-61.537 61.537.001 33.931 27.606 61.536 61.537 61.536zm0-91.073c16.286 0 29.536 13.25 29.536 29.537 0 16.286-13.25 29.536-29.536 29.536-16.287 0-29.537-13.25-29.537-29.536.001-16.287 13.251-29.537 29.537-29.537zm94.218 150.184v26.392c0 8.836-7.164 16-16 16s-16-7.164-16-16v-26.392c0-2.755-1.625-5.262-4.142-6.385l-27.414-12.24h-51.861c14.512 10.647 23.417 27.731 23.417 46.183v47.37c0 8.836-7.164 16-16 16s-16-7.164-16-16v-47.37c0-9.957-5.875-19.014-14.966-23.073l-51.679-23.075h-4.52c-21.569 43.51-84.075 43.562-105.67 0h-4.52l-51.678 23.075c-9.092 4.059-14.967 13.116-14.967 23.073v47.37c0 8.836-7.164 16-16 16s-16-7.164-16-16v-47.37c0-18.452 8.905-35.536 23.417-46.184h-51.862l-27.413 12.24c-2.517 1.124-4.142 3.63-4.142 6.385v26.392c0 8.836-7.164 16-16 16s-16-7.164-16-16v-26.392c0-15.365 9.065-29.341 23.096-35.605 33.316-14.876 32.52-15.021 37.05-15.021 73.327 0 69.944-.525 74.232 1.39l23.207 10.362 23.127-10.327c4.009-1.79 5.017-1.39 25.54-1.39 7.364 0 13.777 5.026 15.537 12.177 6.707 27.256 45.713 27.269 52.423 0 1.76-7.15 8.173-12.177 15.537-12.177h19.017c4.506 0 4.708.58 29.651 11.717 25.203-11.253 25.266-11.752 29.73-11.752 73.327 0 69.942-.526 74.232 1.39l30.527 13.63c14.029 6.266 23.094 20.242 23.094 35.607z" fill="#2e58ff"/></svg>