<svg id="Layer_1" enable-background="new 0 0 511.993 511.993" height="512" viewBox="0 0 511.993 511.993" width="512" xmlns="http://www.w3.org/2000/svg"><path d="m455.996 88v256c0 39.969-32.456 72-72 72h-80l-48 80-48-80h-80c-39.76 0-72-32.24-72-72v-256c0-39.579 32.072-72 72-72h256c39.76 0 72 32.24 72 72z" fill="#8bc4ff"/><path d="m455.996 88v256c0 11.5-2.69 22.36-7.49 32h-320.51c-17.67 0-32-14.33-32-32v-320.51c9.64-4.8 20.5-7.49 32-7.49h256c39.76 0 72 32.24 72 72z" fill="#a2d0ff"/><path d="m335.996 72c0 8.809 7.136 16 16 16h16c8.837 0 16 7.163 16 16v24c0 8.837 7.163 16 16 16 8.809 0 16-7.136 16-16v-24c0-26.51-21.49-48-48-48h-16c-8.836 0-16 7.163-16 16z" fill="#b9dcff"/><circle cx="399.996" cy="176" fill="#b9dcff" r="16"/><g fill="#2e58ff"><circle cx="255.996" cy="336" r="24"/><path d="m255.996 296c-8.836 0-16-7.164-16-16 0-34.85 16.804-68.385 44.95-89.708 12.625-9.564 19.727-24.734 18.998-40.579-1.126-24.478-21.183-44.534-45.66-45.66-27.652-1.269-50.287 20.712-50.287 47.947 0 8.836-7.164 16-16 16s-16-7.164-16-16c0-45.601 37.958-82.031 83.758-79.913 41.022 1.887 74.266 35.076 76.155 76.155 1.214 26.373-10.614 51.628-31.64 67.557-20.208 15.31-32.273 39.31-32.273 64.201-.001 8.836-7.164 16-16.001 16z"/><path d="m242.277 504.232-43.34-72.232h-70.941c-48.523 0-88-39.477-88-88v-256c0-48.523 39.477-88 88-88h256c48.523 0 88 39.477 88 88v256c0 48.523-39.477 88-88 88h-70.941l-43.339 72.232c-6.189 10.314-21.211 10.381-27.439 0zm-114.281-472.232c-30.878 0-56 25.122-56 56v256c0 30.878 25.122 56 56 56h80c5.62 0 10.828 2.949 13.72 7.768l34.28 57.133 34.28-57.133c2.892-4.819 8.1-7.768 13.72-7.768h80c30.878 0 56-25.122 56-56v-256c0-30.878-25.122-56-56-56z"/></g></svg>